<?xml version="1.0" encoding="UTF-8"?> <svg xmlns="http://www.w3.org/2000/svg" width="18" height="18" viewBox="0 0 18 18" fill="none"><g clip-path="url(#clip0_77_65)"><path d="M9.93105 6.51723C8.03796 6.51723 6.51727 8.03791 6.51727 9.931C6.51727 11.8241 8.03796 13.3448 9.93105 13.3448C11.8241 13.3448 13.3448 11.8241 13.3448 9.931C13.3448 8.03791 11.8241 6.51723 9.93105 6.51723ZM9.93105 12.7241C8.37932 12.7241 7.13796 11.4828 7.13796 9.93104C7.13796 8.37931 8.37932 7.13795 9.93105 7.13795C11.4828 7.13795 12.7241 8.37931 12.7241 9.93104C12.7241 11.4828 11.4828 12.7241 9.93105 12.7241Z" fill="#333333"></path><path d="M9.93103 8.37932C9.06207 8.37932 8.3793 9.06209 8.3793 9.93104C8.3793 10.8 9.06207 11.4828 9.93103 11.4828C10.8 11.4828 11.4828 10.8 11.4828 9.93104C11.4828 9.06209 10.8 8.37932 9.93103 8.37932ZM9.93103 10.8621C9.40344 10.8621 8.99999 10.4586 8.99999 9.93104C8.99999 9.40345 9.40344 9 9.93103 9C10.4586 9 10.8621 9.40345 10.8621 9.93104C10.8621 10.4586 10.4586 10.8621 9.93103 10.8621Z" fill="#333333"></path><path d="M9.93106 14.2759C9.74483 14.2759 9.6207 14.4 9.6207 14.5862C9.6207 14.7724 9.74483 14.8966 9.93106 14.8966C10.1173 14.8966 10.2414 14.7724 10.2414 14.5862C10.2414 14.4 10.1172 14.2759 9.93106 14.2759Z" fill="#333333"></path><path d="M9.93106 15.8276C9.74483 15.8276 9.6207 15.9517 9.6207 16.138C9.6207 16.3242 9.74483 16.4483 9.93106 16.4483C10.1173 16.4483 10.2414 16.3242 10.2414 16.138C10.2414 15.9517 10.1172 15.8276 9.93106 15.8276Z" fill="#333333"></path><path d="M9.93106 5.58622C10.1173 5.58622 10.2414 5.46208 10.2414 5.27586C10.2414 5.08964 10.1173 4.9655 9.93106 4.9655C9.74483 4.9655 9.6207 5.08964 9.6207 5.27586C9.6207 5.46208 9.74483 5.58622 9.93106 5.58622Z" fill="#333333"></path><path d="M11.9475 2.11106L12.0724 1.98619C12.1345 1.9241 12.1655 1.86205 12.1655 1.76896C12.1655 1.67586 12.1345 1.61378 12.0724 1.55173C11.7647 1.24397 11.4241 0.978047 11.0591 0.757441C11.0297 0.73241 10.9975 0.713848 10.9639 0.701437C10.6055 0.49493 10.2248 0.331664 9.82934 0.214734C9.76591 0.168363 9.69177 0.149027 9.61938 0.157148C9.20714 0.0536836 8.7807 0 8.34827 0C6.95173 0 5.61723 0.558633 4.62414 1.55173L1.55173 4.62414C0.558633 5.61723 0 6.95173 0 8.34827C0 9.74482 0.558633 11.0793 1.55173 12.0724C1.61381 12.1345 1.67586 12.1655 1.76896 12.1655C1.83104 12.1655 1.92414 12.1345 1.98619 12.0724L2.11106 11.9475C3.02977 15.4759 6.21387 18 9.93104 18C14.369 18 18 14.369 18 9.93104C18 6.21387 15.4759 3.02977 11.9475 2.11106ZM1.24091 10.6763L2.42068 9.49655C2.54482 9.37241 2.54482 9.18619 2.42068 9.06205C2.29655 8.93791 2.11032 8.93791 1.98619 9.06205L0.955828 10.0924C0.849234 9.82842 0.767426 9.55487 0.711281 9.27345C0.73118 9.27735 0.752555 9.27928 0.775828 9.27928C0.837914 9.27928 0.931008 9.24824 0.993059 9.18619L3.10342 7.07583C3.22755 6.95169 3.22755 6.76547 3.10342 6.64133C2.97928 6.5172 2.79306 6.5172 2.66892 6.64133L0.631969 8.67829C0.62448 8.5692 0.620648 8.45916 0.620648 8.34824C0.620648 7.10687 1.1172 5.92755 1.98615 5.0586L5.05856 1.98619C5.92752 1.11723 7.10684 0.620684 8.3482 0.620684C8.57443 0.620684 8.79697 0.636574 9.01526 0.667441L6.82752 2.85518C6.70338 2.97932 6.70338 3.16554 6.82752 3.28968C6.88961 3.35176 6.95166 3.38277 7.04475 3.38277C7.10684 3.38277 7.19993 3.35173 7.26198 3.28968L9.7258 0.825855C9.93987 0.891773 10.1485 0.973195 10.3509 1.0697L9 2.42068C8.87586 2.54482 8.87586 2.73104 9 2.85518C9.06209 2.91727 9.12414 2.94827 9.21723 2.94827C9.31032 2.94827 9.37241 2.91723 9.43446 2.85518L10.907 1.38266C11.0845 1.49889 11.2559 1.62777 11.4206 1.76899L11.1103 2.07935L2.07932 11.1104C2.05485 11.1267 2.03491 11.1474 2.01902 11.1707L1.76899 11.4207C1.56748 11.1856 1.3912 10.9368 1.24091 10.6763ZM9.93104 17.3793C6.39309 17.3793 3.35173 14.8965 2.63795 11.4207L11.4207 2.63791C14.8965 3.35169 17.3793 6.39309 17.3793 9.93101C17.3793 14.0276 14.0276 17.3793 9.93104 17.3793Z" fill="#333333"></path><path d="M16.1379 9.62068C15.9517 9.62068 15.8275 9.74482 15.8275 9.93104C15.8275 10.1173 15.9517 10.2414 16.1379 10.2414C16.3241 10.2414 16.4483 10.1173 16.4483 9.93104C16.4483 9.74482 16.3241 9.62068 16.1379 9.62068Z" fill="#333333"></path><path d="M14.5862 9.62068C14.4 9.62068 14.2759 9.74482 14.2759 9.93104C14.2759 10.1173 14.4 10.2414 14.5862 10.2414C14.7725 10.2414 14.8966 10.1173 14.8966 9.93104C14.8966 9.74482 14.7724 9.62068 14.5862 9.62068Z" fill="#333333"></path><path d="M6.42413 13.0035C6.29999 13.1276 6.29999 13.3138 6.42413 13.438C6.54826 13.5621 6.73449 13.5621 6.85862 13.438C6.98276 13.3138 6.98276 13.1276 6.85862 13.0035C6.73449 12.8793 6.54826 12.8793 6.42413 13.0035Z" fill="#333333"></path><path d="M5.33791 14.0896C5.21378 14.2138 5.21378 14.4 5.33791 14.5241C5.46205 14.6483 5.64827 14.6483 5.77241 14.5241C5.89655 14.4 5.89655 14.2138 5.77241 14.0896C5.64827 13.9655 5.43104 13.9655 5.33791 14.0896Z" fill="#333333"></path><path d="M14.5242 5.77241C14.6483 5.64827 14.6483 5.46205 14.5242 5.33791C14.4311 5.21378 14.2138 5.21378 14.0897 5.33791C13.9655 5.46205 13.9655 5.64827 14.0897 5.77241C14.2138 5.89655 14.4 5.89655 14.5242 5.77241Z" fill="#333333"></path><path d="M13.0034 6.42413C12.8793 6.54827 12.8793 6.73449 13.0034 6.85863C13.1276 6.98277 13.3138 6.98277 13.4379 6.85863C13.5621 6.73449 13.5621 6.54827 13.4379 6.42413C13.3138 6.3 13.1276 6.3 13.0034 6.42413Z" fill="#333333"></path><path d="M14.0897 14.0896C13.9655 14.2138 13.9655 14.4 14.0897 14.5241C14.2138 14.6483 14.4 14.6483 14.5242 14.5241C14.6483 14.431 14.6483 14.2138 14.5242 14.0896C14.4 13.9655 14.2138 13.9655 14.0897 14.0896Z" fill="#333333"></path><path d="M13.0034 13.0035C12.8793 13.1276 12.8793 13.3138 13.0034 13.438C13.1276 13.5621 13.3138 13.5621 13.4379 13.438C13.5621 13.3138 13.5621 13.1276 13.4379 13.0035C13.3138 12.8793 13.1276 12.8793 13.0034 13.0035Z" fill="#333333"></path></g><defs><clipPath id="clip0_77_65"><rect width="18" height="18" fill="white"></rect></clipPath></defs></svg> 