<?xml version="1.0" encoding="UTF-8"?> <svg xmlns="http://www.w3.org/2000/svg" width="18" height="18" viewBox="0 0 18 18" fill="none"><path d="M2.25 7.74C1.64999 8.1 1.41001 8.61001 1.55999 9.09C1.76997 9.74999 2.63999 10.14 3.62999 10.05C4.10997 10.05 4.52999 10.14 4.70999 10.35C4.77 10.44 4.79999 10.53 4.79999 10.62C4.73997 11.16 5.04 11.67 5.60999 11.94C6.23999 12.24 7.25997 12.27 8.01 11.61L8.25001 11.46C8.43001 11.31 8.70001 11.25 9 11.25C9.27 11.25 9.56999 11.34 9.74999 11.46L9.99 11.61C10.44 12 10.95 12.15 11.43 12.15C11.79 12.15 12.12 12.06 12.42 11.91C12.99 11.61 13.29 11.13 13.23 10.59C13.2 10.5 13.23 10.41 13.32 10.32C13.5 10.11 13.92 9.98996 14.4 10.02C15.39 10.11 16.26 9.72 16.47 9.05997C16.62 8.57999 16.35 8.06997 15.78 7.70997C15.57 7.58999 15.42 7.40999 15.42 7.25997C15.42 7.10996 15.54 6.92996 15.78 6.80997C16.35 6.53997 16.62 6.05999 16.5 5.60999C16.35 4.97999 15.54 4.55997 14.52 4.59C13.98 4.61999 13.53 4.5 13.32 4.29001C13.26 4.23 13.23 4.14 13.23 4.05C13.26 3.57001 12.93 3.12001 12.39 2.81999C11.73 2.48997 10.74 2.36999 10.02 2.90999L9.54 3.30001C9.38999 3.39001 9.20999 3.45002 9 3.45002C8.79001 3.45002 8.61001 3.39001 8.48999 3.36002L7.97997 2.94001C7.28996 2.40001 6.26997 2.52 5.63997 2.85001C5.06999 3.15 4.76996 3.6 4.79999 4.08002C4.79999 4.17002 4.77 4.23003 4.73997 4.32003C4.52999 4.53002 4.07999 4.65004 3.53999 4.62002C2.54999 4.59003 1.73999 5.01001 1.55999 5.64001C1.44 6.09001 1.71 6.54001 2.27999 6.84C2.48997 6.95999 2.63999 7.13999 2.63999 7.29C2.63999 7.44001 2.49001 7.58999 2.25 7.74ZM3.24 7.29C3.24 6.90001 2.99999 6.54001 2.54999 6.3C2.39997 6.23999 2.07 6.03 2.12997 5.78999C2.18999 5.49 2.75997 5.18997 3.50996 5.22C4.19997 5.24999 4.79995 5.06999 5.15995 4.70999C5.36994 4.52999 5.45994 4.28997 5.42995 4.01997C5.39996 3.77996 5.60995 3.53999 5.93996 3.35999C6.41995 3.11997 7.13995 3.02997 7.61997 3.38997L8.12999 3.80999C8.37 3.96 8.66999 4.05 9 4.05C9.33001 4.05 9.63 3.96 9.9 3.78L10.38 3.39001C10.86 3.03001 11.61 3.09002 12.09 3.36002C12.42 3.54002 12.63 3.78003 12.6 4.02001C12.6 4.29001 12.69 4.53002 12.87 4.74001C13.2 5.10001 13.8 5.28001 14.52 5.25002C15.27 5.22003 15.81 5.52002 15.9 5.82001C15.96 6.09001 15.63 6.27001 15.48 6.36001C15.03 6.60002 14.79 6.93 14.79 7.32002C14.79 7.68002 15.03 8.04002 15.48 8.28003C15.66 8.37003 15.99 8.61004 15.9 8.91003C15.81 9.21002 15.24 9.51004 14.43 9.45003C13.74 9.42004 13.17 9.60005 12.87 9.93002C12.66 10.14 12.57 10.41 12.6 10.68C12.63 11.1 12.27 11.31 12.12 11.4C11.64 11.64 10.89 11.64 10.38 11.16L10.08 10.95C9.81003 10.77 9.42004 10.65 9.03002 10.65C8.58002 10.65 8.22002 10.77 7.92003 10.92L7.68002 11.1L7.65003 11.13C7.14002 11.61 6.39003 11.61 5.91004 11.37C5.76003 11.28 5.40003 11.07 5.43006 10.65C5.46004 10.35 5.37004 10.11 5.16006 9.90003C4.86007 9.57002 4.29004 9.39002 3.60007 9.42004C2.82006 9.48006 2.22008 9.21006 2.13008 8.88004C2.04008 8.58006 2.40008 8.34004 2.55009 8.25004C2.99999 8.01 3.24 7.67999 3.24 7.29Z" fill="#333333"></path><path d="M9 1.35C4.05 1.35 0 4.02001 0 7.31999V10.98C0.27 14.16 4.23 16.65 9 16.65C13.77 16.65 17.73 14.16 18 10.95V7.31999C18 4.02001 13.95 1.35 9 1.35ZM9 1.95001C13.62 1.95001 17.4 4.35002 17.4 7.32002C17.4 10.32 13.62 12.75 9 12.75C7.84501 12.75 6.74251 12.5981 5.73845 12.3235C5.61294 12.2891 5.48898 12.2529 5.36664 12.2148C4.51023 11.9479 3.73363 11.5899 3.06752 11.16C2.97236 11.0986 2.87947 11.0358 2.78891 10.9715C2.4267 10.7144 2.10199 10.4347 1.82057 10.1362C1.75022 10.0615 1.68258 9.98571 1.61771 9.90879C1.5853 9.87033 1.55355 9.83155 1.52255 9.79253C1.4605 9.71448 1.40129 9.63534 1.34504 9.55515C1.31692 9.51507 1.2895 9.47471 1.26285 9.43411C1.18287 9.31229 1.10957 9.18819 1.0433 9.06201C1.02118 9.01997 0.999879 8.97767 0.979348 8.93517C0.732938 8.42502 0.600047 7.88256 0.600047 7.32006C0.600012 4.34999 4.38001 1.95001 9 1.95001ZM17.4 10.92C17.16 13.74 13.38 16.05 9 16.05C4.62002 16.05 0.839988 13.74 0.600012 10.95V9.48375C1.83305 11.6237 4.83789 13.1757 8.39155 13.3359C8.42727 13.3375 8.46302 13.3391 8.49885 13.3404C8.52852 13.3415 8.55823 13.3425 8.58797 13.3434C8.63209 13.3447 8.67628 13.3458 8.72058 13.3468C8.74452 13.3472 8.76843 13.3478 8.7924 13.3482C8.86145 13.3492 8.9306 13.35 9 13.35C9.0694 13.35 9.13855 13.3492 9.2076 13.3482C9.23157 13.3478 9.25548 13.3472 9.27942 13.3468C9.32368 13.3458 9.36791 13.3447 9.41203 13.3434C9.44177 13.3425 9.47148 13.3415 9.50115 13.3404C9.53698 13.3391 9.57273 13.3375 9.60845 13.3359C13.1621 13.1756 16.167 11.6237 17.4 9.48375V10.92Z" fill="#333333"></path></svg> 