<?xml version="1.0" encoding="UTF-8"?> <svg xmlns="http://www.w3.org/2000/svg" width="18" height="18" viewBox="0 0 18 18" fill="none"><g clip-path="url(#clip0_77_98)"><path d="M17.9749 14.1279C18.0285 13.7843 17.9994 12.9506 17.8624 12.572C17.5678 11.758 16.7681 11.2157 15.8667 11.2157C15.8566 11.2157 15.8462 11.2161 15.8357 11.2161C15.6895 11.2179 15.521 11.2489 15.3199 11.3114C14.9812 11.4165 14.6367 11.4904 14.2888 11.5385V2.25652C14.2888 2.11031 14.1855 1.98464 14.0424 1.95614L4.84712 0.117088C4.83455 0.114636 4.82229 0.118927 4.80973 0.118007C4.79379 0.116475 4.77816 0.110345 4.7616 0.111877L1.08351 0.418385C0.924735 0.431565 0.802438 0.564283 0.802438 0.723974V16.2836L0 17.8884H5.21064H5.89599H10.108H15.0912L14.2888 16.2836V15.7429H14.7004L15.262 16.9404C15.4407 17.4998 15.9709 17.8884 16.5594 17.8884C17.3107 17.8884 17.9218 17.2773 17.9212 16.5049L17.8339 15.2332C17.8072 14.8457 17.8219 14.793 17.8615 14.6523C17.8909 14.5475 17.9313 14.404 17.9749 14.1279ZM11.5094 11.3132C11.3046 11.2519 11.0775 11.2191 10.8341 11.2161C10.8237 11.2161 10.8133 11.2157 10.8023 11.2157C9.8996 11.2157 9.09931 11.7586 8.80475 12.5739C8.66805 12.953 8.63924 13.7858 8.69318 14.1276C8.73671 14.4037 8.77656 14.5475 8.80598 14.6523C8.84552 14.793 8.86023 14.8454 8.83357 15.2328L8.77747 16.0494H5.09325V6.59115L13.6755 7.73535V11.5912C12.9659 11.6194 12.2416 11.5324 11.5094 11.3132ZM1.41545 6.82931L2.64149 6.72724V16.0494H1.41545V6.82931ZM3.2545 6.67606L4.48054 6.57399V16.0494H4.29111H3.2545V6.67606ZM13.6758 7.11682L5.09355 5.97262V0.791099L13.6758 2.50755V7.11682ZM4.48054 5.95913L3.2545 6.0612V0.852708L4.48054 0.75064V5.95913ZM2.64149 0.903588V6.11239L1.41545 6.21446V1.00566L2.64149 0.903588ZM0.991861 17.2754L1.29837 16.6624H4.59762L4.90413 17.2754H0.991861ZM5.58948 17.2754L5.28298 16.6624H8.75234C8.75602 16.7007 8.76368 16.7375 8.77073 16.7746C8.77288 16.7865 8.7741 16.7988 8.77656 16.8104C8.79311 16.8874 8.81701 16.9616 8.84583 17.033C8.85196 17.0483 8.8587 17.0633 8.86544 17.0783C8.89579 17.1467 8.92981 17.2132 8.97088 17.2748H5.58948V17.2754ZM11.247 17.2754C11.2651 17.2481 11.2795 17.2181 11.2954 17.189C11.3062 17.1694 11.3181 17.151 11.3282 17.1307C11.3583 17.0701 11.3849 17.0069 11.4061 16.9407L11.5376 16.6624H13.7929L14.0994 17.2754H11.247ZM13.6758 16.0494H11.8278C11.8941 15.9102 11.9409 15.8121 11.9744 15.7429H13.6761L13.6758 16.0494ZM17.3689 14.0329C17.3312 14.2729 17.2981 14.3915 17.2714 14.4865C17.2138 14.6912 17.1899 14.8016 17.2224 15.2745L17.3091 16.5254C17.3091 16.9389 16.9729 17.2748 16.5597 17.2748C16.2314 17.2748 15.9366 17.055 15.8422 16.7409L15.0903 15.1292H13.9826H11.8183C11.6157 15.0863 11.5836 15.1323 11.1492 16.0488L11.103 16.1469C11.0907 16.1729 11.0794 16.1968 11.0662 16.2241C11.0662 16.2241 11.0662 16.2244 11.0659 16.2247C11.0187 16.3243 10.9666 16.435 10.9108 16.553L10.8424 16.698L10.8259 16.7409C10.7299 17.0602 10.4415 17.2748 10.108 17.2748C10.0565 17.2748 10.0066 17.2696 9.95784 17.2598C9.61945 17.1908 9.36352 16.8932 9.35861 16.5361L9.44536 15.2742C9.47754 14.8016 9.45363 14.6912 9.39631 14.4865C9.36965 14.3912 9.33655 14.2732 9.29915 14.0326C9.25869 13.7775 9.28505 13.049 9.3816 12.7817C9.5885 12.2094 10.1574 11.8288 10.8029 11.8288C10.8105 11.8288 10.8185 11.8291 10.8262 11.8291C11.0125 11.8315 11.1833 11.8554 11.3338 11.9005C11.5115 11.9535 11.689 11.9998 11.8665 12.0396C11.8677 12.04 11.8689 12.04 11.8704 12.0403C12.3881 12.1558 12.9037 12.2147 13.4088 12.2147C13.5532 12.2147 13.7077 12.2073 13.871 12.196C14.424 12.1604 14.9692 12.0617 15.5017 11.8965C15.6782 11.8416 15.7849 11.8294 15.8437 11.8288C15.8511 11.8288 15.8587 11.8285 15.8661 11.8285C16.5104 11.8285 17.0789 12.2088 17.2858 12.7802C17.3824 13.0474 17.4091 13.7769 17.3689 14.0329Z" fill="#333333"></path><path d="M15.8214 12.3713C15.1452 12.3713 14.5953 12.9212 14.5953 13.5973C14.5953 14.2735 15.1452 14.8233 15.8214 14.8233C16.4975 14.8233 17.0474 14.2735 17.0474 13.5973C17.0474 12.9212 16.4975 12.3713 15.8214 12.3713ZM15.8214 14.2103C15.4833 14.2103 15.2084 13.9354 15.2084 13.5973C15.2084 13.2592 15.4833 12.9843 15.8214 12.9843C16.1594 12.9843 16.4344 13.2592 16.4344 13.5973C16.4344 13.9354 16.1594 14.2103 15.8214 14.2103Z" fill="#333333"></path><path d="M10.8808 12.3713C10.2046 12.3713 9.65472 12.9212 9.65472 13.5973C9.65472 14.2735 10.2046 14.8233 10.8808 14.8233C11.5569 14.8233 12.1068 14.2735 12.1068 13.5973C12.1068 12.9212 11.5569 12.3713 10.8808 12.3713ZM10.8808 14.2103C10.5427 14.2103 10.2677 13.9354 10.2677 13.5973C10.2677 13.2592 10.5427 12.9843 10.8808 12.9843C11.2188 12.9843 11.4938 13.2592 11.4938 13.5973C11.4938 13.9354 11.2188 14.2103 10.8808 14.2103Z" fill="#333333"></path><path d="M13.9823 12.6778C13.8128 12.6778 13.6758 12.8148 13.6758 12.9843H13.0628C13.0628 12.8148 12.9258 12.6778 12.7563 12.6778C12.5868 12.6778 12.4498 12.8148 12.4498 12.9843V13.2908C12.4498 13.4603 12.5868 13.5973 12.7563 13.5973H13.9823C14.1518 13.5973 14.2888 13.4603 14.2888 13.2908V12.9843C14.2888 12.8148 14.1518 12.6778 13.9823 12.6778Z" fill="#333333"></path></g><defs><clipPath id="clip0_77_98"><rect width="18" height="18" fill="white"></rect></clipPath></defs></svg> 