<?xml version="1.0" encoding="UTF-8"?> <svg xmlns="http://www.w3.org/2000/svg" width="18" height="18" viewBox="0 0 18 18" fill="none"><g clip-path="url(#clip0_77_2)"><path d="M17.0688 6.45001H14.9285C14.3957 3.00361 12.3225 0.150024 8.99984 0.150024C5.67718 0.150024 3.60399 3.00361 3.07114 6.45001H0.930904C0.416611 6.45001 0 6.86662 0 7.38091V12.1191C0 12.5167 0.249159 12.8558 0.599861 12.9893V16.9191C0.599861 17.4335 1.01654 17.85 1.53105 17.85H16.4686C16.9831 17.85 17.3998 17.4335 17.3998 16.9191V12.9893C17.7506 12.8558 18 12.5167 18 12.1191V7.38091C18 6.86662 17.5831 6.45001 17.0688 6.45001ZM8.99984 0.750028C11.923 0.750028 13.8058 3.30291 14.3212 6.45001H13.7001C13.5524 5.69392 13.312 4.89891 12.9534 4.15154C12.0682 2.30696 10.7288 1.35 8.99984 1.35C7.39948 1.35 6.19594 2.17871 5.35146 3.5901C4.82483 4.47025 4.4895 5.47636 4.29957 6.44997H3.6784C4.19384 3.30291 6.07667 0.750028 8.99984 0.750028ZM13.0877 6.45001H4.91183C5.09344 5.57433 5.40139 4.67527 5.86636 3.8982C6.61083 2.65394 7.63313 1.95 8.99988 1.95C10.4832 1.95 11.6218 2.76353 12.4125 4.4111C12.7282 5.06929 12.9474 5.77441 13.0877 6.45001ZM16.7998 16.9191C16.7998 17.102 16.6518 17.25 16.4687 17.25H1.53105C1.34787 17.25 1.19986 17.102 1.19986 16.9191V13.05H6.29984V13.4322C6.29984 13.6547 6.44031 13.8437 6.63721 13.917C6.69351 13.938 6.7542 13.95 6.81778 13.95H6.81792H8.09982V14.85C8.09982 14.9092 8.11733 14.9671 8.15021 15.0164L8.75022 15.9164C8.86895 16.0945 9.13069 16.0945 9.24946 15.9164L9.84947 15.0164C9.88231 14.9671 9.89986 14.9092 9.89986 14.85V13.95H11.1818H11.1819C11.4678 13.95 11.7 13.7182 11.7 13.4322V13.05H16.7998L16.7998 16.9191ZM11.1 12.747C11.1 12.748 11.0998 12.749 11.0998 12.75V13.35H9.59984H8.39984H6.89999V12.75V12.15H11.1V12.747ZM8.69986 13.95H9.29986V14.7592L8.99988 15.2092L8.69989 14.7592L8.69986 13.95ZM17.4 12.1191C17.4 12.3019 17.2518 12.45 17.0688 12.45H11.7V12.0678C11.7 11.7818 11.4678 11.55 11.1819 11.55H6.81778C6.53181 11.55 6.29998 11.7818 6.29998 12.0678V12.45H0.930904C0.747976 12.45 0.600004 12.302 0.600004 12.1191V7.38091C0.600004 7.19798 0.747976 7.05001 0.930904 7.05001H3.33106H4.54965H13.4501H14.6687H17.0688C17.2518 7.05001 17.4 7.19809 17.4 7.38091V12.1191Z" fill="#333333"></path></g><defs><clipPath id="clip0_77_2"><rect width="18" height="18" fill="white"></rect></clipPath></defs></svg> 