<?xml version="1.0" encoding="UTF-8"?> <svg xmlns="http://www.w3.org/2000/svg" width="18" height="18" viewBox="0 0 18 18" fill="none"><g clip-path="url(#clip0_77_21)"><path d="M9 6.29999C9.16568 6.29999 9.29999 6.16568 9.29999 6C9.29999 5.83432 9.16568 5.70001 9 5.70001C8.83432 5.70001 8.70001 5.83432 8.70001 6C8.70001 6.16568 8.83432 6.29999 9 6.29999Z" fill="#333333"></path><path d="M9 7.49994C9.16568 7.49994 9.29999 7.36563 9.29999 7.19995C9.29999 7.03427 9.16568 6.89996 9 6.89996C8.83432 6.89996 8.70001 7.03427 8.70001 7.19995C8.70001 7.36563 8.83432 7.49994 9 7.49994Z" fill="#333333"></path><path d="M17.9359 7.31461L14.6841 3.17603C14.5739 2.66321 13.7622 2.11482 11.8589 1.53471L11.0466 0.722399L10.9735 0.576467C10.7972 0.223362 10.4359 0.00012207 10.0408 0.00012207H7.95974C7.56434 0.00012207 7.20297 0.223713 7.02649 0.577522L6.95397 0.722785L6.14201 1.53474C4.19567 2.12793 3.39089 2.688 3.30704 3.18724L0.0641245 7.31461C-0.0415539 7.44912 -0.0135699 7.64465 0.125647 7.74407L2.22561 9.24407C2.31768 9.30985 2.43894 9.31821 2.53917 9.26569L4.20112 8.39523L4.20098 17.6999C4.20098 17.8655 4.33531 17.9998 4.50097 17.9998H5.69827C5.69887 17.9998 5.69946 17.9999 5.70006 17.9999H7.50004C7.50064 17.9999 7.50124 17.9999 7.50183 17.9998H13.5C13.6657 17.9998 13.8 17.8655 13.8 17.6999V8.39576L15.4608 9.26569C15.5611 9.31818 15.6823 9.30981 15.7744 9.24407L17.8744 7.74407C18.0136 7.64465 18.0416 7.44912 17.9359 7.31461ZM7.10872 1.41669L8.04383 3.44276L7.36406 3.78271L6.64966 1.87576L7.10872 1.41669ZM10.8926 1.41718L11.3512 1.87572L10.6367 3.78268L9.95761 3.443L10.8926 1.41718ZM7.9597 0.600092H10.0408C10.2086 0.600092 10.362 0.694907 10.4369 0.844811L10.4671 0.905174L9.29028 3.4552C9.28891 3.45819 9.28789 3.46125 9.28663 3.46427L9.00077 4.08379L7.53361 0.904928L7.56336 0.845374C7.63831 0.695047 7.79176 0.600092 7.9597 0.600092ZM4.20088 7.71802L2.42424 8.6486L0.729941 7.43839L3.66475 3.70319C3.81666 3.86547 3.94568 4.15983 4.04134 4.55663C4.10188 4.80779 4.14505 5.07961 4.17342 5.35182C4.18337 5.44738 4.19072 5.53597 4.19588 5.61518C4.19863 5.65754 4.20021 5.6883 4.20091 5.7057V7.71802H4.20088ZM7.20002 17.3998H6.00005V16.7999H7.20002V17.3998ZM7.80003 17.3998V16.5C7.80003 16.3343 7.6657 16.2 7.50004 16.2H5.70006C5.53437 16.2 5.40008 16.3343 5.40008 16.5V17.3998H4.80099V5.69997C4.80004 5.66759 4.79814 5.6291 4.79473 5.57626C4.78914 5.48949 4.78116 5.39313 4.7704 5.28949C4.7396 4.9926 4.69253 4.69529 4.62521 4.41527C4.48912 3.84923 4.29193 3.42012 3.99486 3.18014C4.02749 3.14699 4.06834 3.11046 4.11851 3.07088C4.46845 2.79459 5.11437 2.48912 6.11926 2.17022L6.91916 4.30538C6.98167 4.47223 7.17492 4.54813 7.33428 4.46843L8.29541 3.98774L8.72835 4.92574C8.79539 5.07103 8.94962 5.12546 9.08202 5.08907C9.16147 5.06731 9.23308 5.01285 9.27334 4.92567L9.70611 3.98802L10.6666 4.46839C10.826 4.54809 11.0192 4.47216 11.0817 4.30534L11.8816 2.17015C12.8866 2.48909 13.5325 2.79455 13.8824 3.07084C13.9324 3.11029 13.9731 3.14667 14.0057 3.17972C13.8652 3.29236 13.7459 3.4507 13.6446 3.64845C13.6381 3.661 13.6316 3.67349 13.6253 3.68635C13.6186 3.7001 13.612 3.71416 13.6055 3.72829C13.5964 3.74784 13.5874 3.76777 13.5786 3.78799C13.574 3.79857 13.5694 3.80912 13.5649 3.81987C13.552 3.85053 13.5394 3.88185 13.5273 3.91395C13.5267 3.91546 13.5261 3.91694 13.5255 3.91845C13.5117 3.95501 13.4984 3.99256 13.4854 4.03095C13.484 4.03499 13.4827 4.03918 13.4813 4.04325C13.4705 4.07574 13.46 4.10889 13.4497 4.14264C13.4467 4.15259 13.4437 4.16264 13.4407 4.17273C13.4323 4.20117 13.4241 4.23010 13.4161 4.25936C13.4127 4.27166 13.4092 4.28386 13.4059 4.29631C13.3981 4.32577 13.3905 4.35572 13.3831 4.38599C13.3806 4.39608 13.3779 4.40578 13.3755 4.41594C13.308 4.69575 13.2608 4.99285 13.2299 5.28956C13.2191 5.39313 13.2111 5.48942 13.2055 5.57615C13.202 5.62896 13.2001 5.66742 13.1994 5.68922L13.1992 7.8995C13.1992 7.90421 13.1999 7.90874 13.2001 7.91342L13.2 17.3998L7.80003 17.3998ZM15.5758 8.6486L13.8 7.71844V5.69997C13.8004 5.69442 13.8019 5.66172 13.805 5.61493C13.8101 5.53565 13.8174 5.44696 13.8273 5.35133C13.8555 5.07891 13.8986 4.80687 13.9591 4.55547C13.9666 4.52405 13.9744 4.49346 13.9824 4.46337C13.9844 4.45584 13.9864 4.44843 13.9885 4.44101C13.9941 4.42012 13.9999 4.3997 14.0057 4.37948C14.0088 4.3689 14.0118 4.35822 14.0149 4.34781C14.0201 4.33051 14.0254 4.31378 14.0307 4.29701C14.0384 4.27282 14.0462 4.24913 14.0541 4.22599C14.0564 4.21946 14.0586 4.21285 14.0609 4.20638C14.0673 4.18803 14.0738 4.16999 14.0805 4.15234C14.0812 4.1503 14.082 4.1483 14.0828 4.14626C14.1574 3.9489 14.2424 3.79727 14.3328 3.69985L17.2701 7.43829L15.5758 8.6486Z" fill="#333333"></path><path d="M12.3 6.29999H10.5C10.3343 6.29999 10.2 6.43428 10.2 6.59998V8.39998C10.2 8.50028 10.2501 8.59397 10.3336 8.64959L11.2336 9.2496C11.3344 9.31678 11.4657 9.31678 11.5664 9.2496L12.4664 8.64959C12.5499 8.59393 12.6 8.50028 12.6 8.39998V6.59998C12.6 6.43428 12.4657 6.29999 12.3 6.29999ZM12 8.23942L11.4 8.63942L10.8 8.23942V6.89996H12V8.23942H12Z" fill="#333333"></path></g><defs><clipPath id="clip0_77_21"><rect width="18" height="18" fill="white"></rect></clipPath></defs></svg> 